<svg
  xmlns="http://www.w3.org/2000/svg"
  viewBox="0 0 32 32"
  width="512"
  height="512"
><g id="outline"><path
      d="M16,7.5a8.46179,8.46179,0,0,0-4.33643,1.19092.49993.49993,0,0,0,.5127.8584A7.43855,7.43855,0,0,1,15.5,8.53351V11a.49971.49971,0,0,0,.5.5h1a.5.5,0,0,1,0,1H16a.49971.49971,0,0,0-.5.5v2.5h-2V15a1.5,1.5,0,0,0-3,0v.50049l-1.96655.00116a7.438,7.438,0,0,1,1.01587-3.32538.49993.49993,0,0,0-.8584-.5127A8.48664,8.48664,0,0,0,11.5,23.20264V24a.49971.49971,0,0,0,.5.5h.5v1.002H12a.5.5,0,0,0,0,1h.5v1.5a.49971.49971,0,0,0,.5.5h.5506a2.49989,2.49989,0,0,0,4.8988,0H19a.49971.49971,0,0,0,.5-.5v-1.5H20a.5.5,0,0,0,0-1h-.5V24.5H20a.49971.49971,0,0,0,.5-.5v-.79736A8.49456,8.49456,0,0,0,16,7.5Zm0,22.002a1.50309,1.50309,0,0,1-1.41455-1h2.8291A1.50309,1.50309,0,0,1,16,29.502Zm2.5-2h-5v-1h5Zm-5-2v-1h5v1Zm3-12.002H17a1.5,1.5,0,0,0,0-3h-.5V8.52533a7.49889,7.49889,0,0,1,6.97473,6.97626L21.00049,15.5H21a.50011.50011,0,0,0-.5.5v1a.5.5,0,0,1-1,0V16a.49971.49971,0,0,0-.5-.5H16.5ZM8.53363,16.50159,11.00049,16.5A.49992.49992,0,0,0,11.5,16V15a.5.5,0,0,1,1,0v1a.49971.49971,0,0,0,.5.5h2.5v2H15a1.5,1.5,0,0,0,0,3h.5v2h-3v-.58008a.4999.4999,0,0,0-.25-.4331A7.50477,7.50477,0,0,1,8.53363,16.50159ZM19.75,22.48682a.4999.4999,0,0,0-.25.4331V23.5h-3V21a.49971.49971,0,0,0-.5-.5H15a.5.5,0,0,1,0-1h1a.49971.49971,0,0,0,.5-.5V16.5h2V17a1.5,1.5,0,0,0,3,0v-.49951l1.96637.00116A7.50485,7.50485,0,0,1,19.75,22.48682Z"
    /><path
      d="M5.5,16a.49971.49971,0,0,0-.5-.5H2a.5.5,0,0,0,0,1H5A.49971.49971,0,0,0,5.5,16Z"
    /><path
      d="M6.72363,10.06689l-2.59814-1.5a.50008.50008,0,1,0-.5.86622l2.59814,1.5a.50008.50008,0,0,0,.5-.86622Z"
    /><path
      d="M10.06689,6.72363a.50008.50008,0,1,0,.86622-.5l-1.5-2.59814a.50008.50008,0,0,0-.86622.5Z"
    /><path
      d="M16,5.5a.49971.49971,0,0,0,.5-.5V2a.5.5,0,0,0-1,0V5A.49971.49971,0,0,0,16,5.5Z"
    /><path
      d="M21.25,6.90674a.50031.50031,0,0,0,.68311-.18311l1.5-2.59814a.50008.50008,0,0,0-.86622-.5l-1.5,2.59814A.5.5,0,0,0,21.25,6.90674Z"
    /><path
      d="M25.52686,11a.49724.49724,0,0,0,.24951-.06689l2.59814-1.5a.50008.50008,0,0,0-.5-.86622l-2.59814,1.5A.5.5,0,0,0,25.52686,11Z"
    /><path d="M30,15.5H27a.5.5,0,0,0,0,1h3a.5.5,0,0,0,0-1Z" /><path
      d="M28.37451,22.56689l-2.59814-1.5a.50008.50008,0,1,0-.5.86622l2.59814,1.5a.50008.50008,0,0,0,.5-.86622Z"
    /><path
      d="M6.22363,21.06689l-2.59814,1.5a.50008.50008,0,0,0,.5.86622l2.59814-1.5a.50008.50008,0,1,0-.5-.86622Z"
    /><path
      d="M9.98956,9.98956a.5.5,0,1,0,.70716,0A.5.5,0,0,0,9.98956,9.98956Z"
    /></g></svg>
