<svg
  xmlns="http://www.w3.org/2000/svg"
  id="Capa_1"
  height="512"
  viewBox="0 0 512 512"
  width="512"
><g><path
      d="m89.002 215.765v25.235c0 4.143 3.358 7.5 7.5 7.5s7.5-3.357 7.5-7.5v-24.871h18.637v76.787h-18.637v-16.916c0-4.143-3.358-7.5-7.5-7.5s-7.5 3.357-7.5 7.5v17.28c0 8.07 6.57 14.636 14.646 14.636h19.345c6.666 0 12.295-4.478 14.061-10.578h14.447c3.091 0 6.137 1.035 8.576 2.915l41.155 31.719c6.317 4.905 14.209 7.607 22.221 7.607h99.563c8.082 0 14.657-6.557 14.657-14.616 0-4.905-1.239-9.797-3.417-13.846h17.278c40.898 0 74.171-33.02 74.171-73.939v-37.565c0-7.707-6.269-13.977-13.973-13.977h-8.816c.15-1.171.237-2.353.237-3.545 0-12.642-8.505-23.326-20.089-26.647l29.721-32.755c4.334-4.776 6.48-10.951 6.043-17.387s-3.397-12.264-8.335-16.41c-4.939-4.147-11.187-6.053-17.603-5.365-6.413.687-12.12 3.875-16.07 8.977l-32.005 41.34c-2.322.04-4.613.357-6.825.961-7.852-12.445-26.542-16.716-39.531-7.169-4.699-3.435-10.427-5.362-16.36-5.362-9.491 0-18.145 4.885-23.172 12.531-13.555-4.282-30.925 5.389-34.123 19.767-16.724-2.251-33.632 13.324-30.807 31.065h-7.519c-7.705 0-13.973 6.27-13.973 13.977v12.1c-2.839-.406-5.716-.621-8.614-.621h-27.031c-1.958-5.782-7.428-9.962-13.867-9.962h-19.345c-8.075-.002-14.646 6.563-14.646 14.634zm299.677-114.079c1.428-1.845 3.49-2.997 5.808-3.245 2.317-.247 4.575.44 6.359 1.939 1.787 1.5 2.857 3.608 3.016 5.938s-.618 4.563-2.186 6.291l-32.182 35.467c-2.211-3.96-5.364-7.321-9.155-9.785zm-201.177 98.95h131.115c4.142 0 7.5-3.357 7.5-7.5s-3.358-7.5-7.5-7.5h-109.354c-2.39-6.811 3.757-16.43 12.206-16.267 2.247 0 4.457.598 6.39 1.729 2.496 1.459 5.607 1.354 7.999-.27s3.637-4.478 3.202-7.335c-1.13-6.416 4.332-14.647 12.562-14.666 2.462 0 4.851.708 6.909 2.048 2.004 1.305 4.511 1.575 6.747.728 2.237-.847 3.935-2.709 4.573-5.014 1.518-5.485 6.553-9.316 12.245-9.316 4.113 0 7.864 1.917 10.29 5.261 1.411 1.944 3.668 3.095 6.07 3.095s4.659-1.151 6.07-3.095c2.426-3.344 6.176-5.261 10.289-5.261 5.692 0 10.728 3.831 12.245 9.316.638 2.305 2.336 4.167 4.573 5.014 2.236.849 4.742.576 6.747-.728 7.436-5.421 21.525 1.32 19.472 12.618-.436 2.857.81 5.711 3.202 7.335 2.391 1.624 5.503 1.728 7.999.27 1.933-1.131 4.143-1.729 6.39-1.729 7.008 0 12.709 5.707 12.709 12.722 0 1.21-.171 2.402-.501 3.545h-34.035c-4.142 0-7.5 3.357-7.5 7.5s3.358 7.5 7.5 7.5h57.087v36.542c0 32.649-26.544 58.939-59.171 58.939h-95.58c1.146-3.482 1.623-7.186 1.365-10.952-.525-7.674-4.012-14.683-9.823-19.746l-43.675-39.341c-.03-.027-.061-.055-.092-.082-4.874-4.247-10.359-7.648-16.226-10.125v-15.235zm-9.811 27.591c4.662 1.441 11.185 4.739 16.137 9.039l43.678 39.343c.035.032.071.063.107.095 2.805 2.432 4.488 5.801 4.74 9.485.244 3.569-.884 7.025-3.181 9.77l-50.369-44.849c-3.092-2.753-7.833-2.479-10.589.614-2.754 3.094-2.479 7.834.614 10.589l50.758 45.194c1.597 1.347 5.305 3.61 9.337 3.61h72.538c6.387 0 11.026 6.934 11.206 13.462h-99.214c-4.697 0-9.321-1.582-13.042-4.472l-41.178-31.736c-5.05-3.891-11.347-6.033-17.732-6.033h-13.861v-56.247h26.249c4.723 0 9.374.734 13.802 2.136z"
    /><path
      d="m368.038 405.385c-12.871-1.583-25.002-6.781-35.084-15.032-1.898-1.555-4.436-2.079-6.796-1.412-2.36.67-4.244 2.451-5.043 4.771-9.582 27.775-35.749 46.438-65.114 46.438-17.127 0-33.382-6.279-46.047-17.702 1.065-31.846-25.266-59.018-57.366-58.957-22.921 0-42.738 13.507-51.934 32.976-20.911-12.276-34.068-34.889-34.068-59.492 0-9.556 1.93-18.823 5.736-27.547.883-2.024.83-4.335-.147-6.315-.977-1.981-2.777-3.432-4.921-3.963-30.767-7.634-52.254-35.143-52.254-66.898 0-32.084 22.698-60.385 53.97-67.293 2.265-.5 4.171-2.021 5.163-4.117s.957-4.535-.094-6.603c-4.946-9.736-7.454-20.226-7.454-31.175 0-28.177 16.85-53.248 42.926-63.872 3.836-1.562 5.679-5.939 4.116-9.775s-5.939-5.682-9.775-4.115c-31.751 12.936-52.267 43.459-52.267 77.763 0 10.283 1.817 20.233 5.413 29.689-14.88 5.053-28.227 14.292-38.229 26.597-12.103 14.888-18.769 33.675-18.769 52.901 0 35.834 22.478 67.228 55.6 79.031-2.667 8.273-4.015 16.883-4.015 25.689 0 31.104 17.276 59.59 44.456 74.09-.554 3.197-.86 6.479-.86 9.832 0 31.654 25.752 57.406 57.406 57.406 25.217 0 46.673-16.351 54.362-39.002 14.203 10.284 31.243 15.85 49.051 15.85 32.417 0 61.632-18.671 75.503-47.356 10.478 6.684 22.308 10.956 34.704 12.481 4.105.499 7.854-2.418 8.359-6.528.506-4.111-2.417-7.854-6.528-8.36zm-215.451 57.916c-23.383 0-42.406-19.023-42.406-42.406s19.023-42.405 42.406-42.405 42.406 19.022 42.406 42.405-19.023 42.406-42.406 42.406z"
    /><path
      d="m512 232.252c0-19.226-6.666-38.013-18.769-52.901-10.002-12.305-23.349-21.544-38.229-26.597 3.596-9.456 5.413-19.406 5.413-29.689 0-46.28-37.631-83.932-83.885-83.932-15.974 0-31.637 4.606-45.023 13.119-13.87-28.69-43.088-47.364-75.507-47.364-32.415 0-61.628 18.669-75.5 47.352-11.711-7.483-25.039-11.906-39.05-12.896-4.135-.287-7.718 2.82-8.01 6.953-.292 4.132 2.821 7.718 6.953 8.01 14.225 1.005 27.591 6.322 38.654 15.378 1.898 1.554 4.437 2.079 6.797 1.412 2.36-.67 4.244-2.451 5.043-4.771 9.581-27.776 35.748-46.438 65.113-46.438s55.532 18.662 65.114 46.438c.8 2.319 2.684 4.101 5.043 4.771 2.361.667 4.898.142 6.797-1.412 12.252-10.028 27.727-15.551 43.576-15.551 37.983 0 68.885 30.923 68.885 68.932 0 10.949-2.508 21.438-7.454 31.175-1.051 2.067-1.085 4.506-.094 6.603s2.897 3.617 5.163 4.117c31.272 6.908 53.97 35.209 53.97 67.293 0 31.755-21.487 59.264-52.252 66.896-2.144.531-3.944 1.981-4.921 3.963-.977 1.98-1.031 4.291-.147 6.315 3.806 8.724 5.736 17.991 5.736 27.547 0 29.327-18.586 55.499-46.25 65.126-3.912 1.361-6.079 5.672-4.619 9.548 1.036 2.751 4.432 6.242 9.548 4.618 33.688-11.722 56.321-43.587 56.321-79.292 0-8.807-1.348-17.416-4.015-25.689 33.121-11.807 55.599-43.2 55.599-79.034z"
    /><path
      d="m46.087 434.489c-20.022 0-36.312 16.289-36.312 36.312s16.289 36.312 36.312 36.312 36.312-16.289 36.312-36.312-16.29-36.312-36.312-36.312zm0 57.623c-11.751 0-21.312-9.561-21.312-21.312s9.561-21.312 21.312-21.312 21.312 9.561 21.312 21.312-9.561 21.312-21.312 21.312z"
    /></g></svg>
