<svg
  xmlns="http://www.w3.org/2000/svg"
  viewBox="0 0 64 64"
  width="512"
  height="512"
><g
    id="money_bag-hand-finance-business"
    data-name="money bag-hand-finance-business"
  ><path
      d="M55.59,46.41a4.512,4.512,0,0,0-1.61-2.75c.01-.22.02-.43.02-.66,0-7.86-4.53-19.61-11.92-25.85a2.975,2.975,0,0,0-.72-4.81l1.61-7.12a.969.969,0,0,0-.19-.84A1,1,0,0,0,42,4a4.658,4.658,0,0,1-2.82-.86,7.054,7.054,0,0,0-7.69,0A4.658,4.658,0,0,1,28.67,4a4.69,4.69,0,0,1-2.83-.86A6.617,6.617,0,0,0,22,2a.985.985,0,0,0-.79.39,1.01,1.01,0,0,0-.18.87l2.35,8.81a2.994,2.994,0,0,0-1.47,5.08C14.52,23.4,10,35.14,10,43a18.07,18.07,0,0,0,.12,2H4a1,1,0,0,0-1,1V59a1,1,0,0,0,1,1h6.76l3.79,1.89A1,1,0,0,0,15,62H31a1.129,1.129,0,0,0,.44-.1L53.38,51.1a4.574,4.574,0,0,0,2.21-4.69ZM23.34,4.16a5.588,5.588,0,0,1,1.48.7A6.628,6.628,0,0,0,28.67,6a6.617,6.617,0,0,0,3.84-1.14,5.07,5.07,0,0,1,5.65,0,6.757,6.757,0,0,0,2.61,1.05L39.38,12h-3.2l.81-4.84-1.98-.32L34.15,12H29.82l-.84-4.2-1.96.4.76,3.8H25.43ZM24,14H40a1,1,0,0,1,0,2l-16.1-.02A.989.989,0,0,1,23,15,1,1,0,0,1,24,14Zm.03,4H39.97C47.31,23.56,51.87,34.98,52,42.68a4.627,4.627,0,0,0-1.74-.01l-18.19,3.3L27.6,44.48l1.99-2.77A10.191,10.191,0,0,0,32,42,10,10,0,1,0,22,32a9.838,9.838,0,0,0,.67,3.57L12.08,44.73C12.03,44.19,12,43.61,12,43,12,35.3,16.59,23.64,24.03,18ZM30.6,38H31v1h2V38h1a3.009,3.009,0,0,0,3-3V34a3.009,3.009,0,0,0-3-3H30a1,1,0,0,1-1-1V29a1,1,0,0,1,1-1h4a1,1,0,0,1,1,1v1h2V29a3.009,3.009,0,0,0-3-3H33V25H31v1H30a3.009,3.009,0,0,0-3,3v1a3.009,3.009,0,0,0,3,3h4a1,1,0,0,1,1,1v1a1,1,0,0,1-1,1H30a.712.712,0,0,1-.22-.05,4.223,4.223,0,0,0-.39-.47,4.606,4.606,0,0,0-5.01-1.05A7.916,7.916,0,0,1,24,32a8,8,0,1,1,8,8,7.488,7.488,0,0,1-1.5-.16A4.971,4.971,0,0,0,30.6,38ZM52.43,49.34,30.77,60H15.24l-3.79-1.89A1,1,0,0,0,11,58H5V47h7.15a1.021,1.021,0,0,0,.65-.24L24.39,36.72a2.6,2.6,0,0,1,3.57.16,2.747,2.747,0,0,1,.15,3.46l-2.92,4.08a.979.979,0,0,0-.14.89,1,1,0,0,0,.63.64l6,2A1.185,1.185,0,0,0,32,48a.554.554,0,0,0,.18-.02l18.44-3.35a2.54,2.54,0,0,1,1.82.35h.01a2.533,2.533,0,0,1,1.16,1.75,2.984,2.984,0,0,1,.04.42A2.567,2.567,0,0,1,52.43,49.34Z"
    /></g></svg>
