<svg
  xmlns="http://www.w3.org/2000/svg"
  id="Layer_1"
  height="512"
  viewBox="0 0 512 512"
  width="512"
><path
    d="m111.465 177.477c-.227 5.244-4.677 9.298-9.921 9.042-5.216-.227-9.269-4.677-9.014-9.921.227-5.216 4.677-9.269 9.893-9.014 5.244.227 9.298 4.677 9.042 9.893zm390.638 146.238c-2.372 5.367-6.676 9.477-12.118 11.572l-28.438 11.046c-2.591.994-5.257 1.464-7.879 1.464-8.822 0-17.155-5.324-20.522-13.984l-2.489-6.42-23.171 9.665c1.128 6.57.058 13.395-3.202 19.315-3.859 7.02-10.26 12.11-18.019 14.329-.329.094-.657.182-.986.265 2.537 7.641 2.029 16.244-2.114 23.762-3.816 6.958-10.153 12.029-17.836 14.264-4.061 1.181-8.231 1.491-12.291.957.353 5.466-.788 11.075-3.605 16.187-3.837 6.998-10.21 12.084-17.938 14.308-4.834 1.391-9.813 1.546-14.568.507.156 5.152-1.015 10.396-3.664 15.205-3.821 6.986-10.45 12.255-18.176 14.434-2.687.758-5.412 1.133-8.111 1.133-5.021 0-9.955-1.297-14.397-3.844l-7.863-4.519c-3.889 5.475-9.46 9.498-16.028 11.489-2.949.894-5.958 1.336-8.947 1.336-4.945 0-9.833-1.212-14.296-3.6-6.635-3.553-11.533-9.28-14.101-15.961-8.281 3.529-18.002 3.365-26.407-1.133-5.939-3.165-10.51-8.145-13.242-14.006-1.777.96-3.664 1.751-5.638 2.356-7.825 2.396-16.108 1.592-23.324-2.266-11.709-6.249-17.678-19.111-15.773-31.563-5.137.119-10.335-1.057-15.067-3.586-14.83-7.935-20.447-26.467-12.524-41.314l7.669-14.352c-1.716-4.073-2.561-8.523-3.371-12.873-1.468-7.878-2.61-12.76-6.097-14.116-2.031-.784-7.118-2.993-16.558-7.196l-3.082 6.974c-3.645 8.185-11.708 13.06-20.128 13.06-2.951 0-5.943-.598-8.808-1.862l-27.929-12.368c-5.333-2.353-9.441-6.666-11.561-12.141-2.119-5.472-1.988-11.426.368-16.765l64.093-145.052.009-.021c4.914-11.033 17.89-16.047 28.926-11.177l27.924 12.332c11.056 4.924 16.069 17.9 11.198 28.937l-4.814 10.895 18.17 8.383c.194.089.384.186.57.291 10 5.624 20.431 3.178 33.636.084 17.227-4.038 38.428-8.997 63.172 5.534 34.198-21.133 60.465-10.415 79.854-2.486 14.447 5.907 23.044 9.029 31.729 4.51l15.857-8.485-4.369-11.27c-4.342-11.278 1.278-23.996 12.521-28.368l28.468-11.03c5.453-2.12 11.423-1.978 16.806.401 5.365 2.372 9.474 6.674 11.569 12.114l57.312 147.842c2.12 5.453 1.979 11.424-.4 16.807zm-374.705-151.68c1.299-2.944-.099-6.547-3.055-7.863l-27.899-12.321c-2.944-1.301-6.546.098-7.864 3.052l-64.083 145.03c-.631 1.431-.662 3.042-.084 4.534.577 1.49 1.684 2.659 3.115 3.291l27.929 12.363c2.941 1.297 6.542-.102 7.859-3.058zm7.832 218.933 18.296-31.662c3.008-6.915.211-15.051-6.459-18.62-7.067-3.771-15.916-1.091-19.717 5.978l-13.88 25.976c-3.775 7.074-1.102 15.906 5.961 19.686 5.085 2.716 11.296 2.145 15.799-1.358zm34.77 30.477 20.214-39.13c1.203-6.21-1.812-12.71-7.393-15.688-5.118-2.745-11.361-2.146-15.881 1.42l-22.628 39.741c-3.779 7.081-1.109 15.912 5.954 19.681 3.441 1.839 7.384 2.224 11.108 1.082 3.723-1.14 6.786-3.664 8.626-7.106zm40.885 15.935 17.916-34.422c1.22-6.211-1.786-12.714-7.372-15.694-5.555-2.964-12.581-1.892-17.062 2.487l-19.527 37.8c-.382 5.691 2.581 11.145 7.629 13.835 6.302 3.373 14.13 1.634 18.416-4.006zm41.784 15.141 13.322-24.915c2.557-4.761 2.202-10.625-.856-15.104-.146-.184-.281-.375-.41-.57-1.252-1.652-2.857-3.035-4.664-3.99-5.605-3.008-12.642-1.932-17.121 2.476l-17.564 33.746c-.589 5.86 2.374 11.517 7.613 14.323 3.393 1.815 7.321 2.192 11.062 1.059 3.741-1.134 6.801-3.629 8.618-7.025zm41.087-23.021c-.416-.234-10.227-5.925-10.227-5.925-.362 3.999-1.494 7.946-3.447 11.583l-7.604 14.221 8.059 4.632c3.065 1.757 6.694 2.181 10.21 1.189 3.618-1.02 6.716-3.477 8.501-6.74 3.689-6.692 1.219-15.187-5.492-18.96zm96.763-93.529.002-.001c-.004-.008-.01-.015-.014-.024-1.261-2.617-3.276-4.767-5.826-6.219l-75.688-43.145c-12.859-7.323-28.918-.821-47.514 6.708-13.901 5.628-29.527 11.953-45.36 11.955-15.467.001-31.131-6.032-45.598-24.642-1.874-2.425-2.613-5.519-2.041-8.506.574-2.995 2.414-5.606 5.047-7.164 21.349-12.449 39.37-26.046 53.605-40.439 3.705-3.739 7.436-7.174 11.166-10.3-16.382-7.197-30.385-3.924-45.067-.483-14.506 3.399-29.505 6.914-44.828-1.551l-17.658-8.147-43.274 97.935c6.238 2.778 13.682 6.065 15.874 6.912 10.681 4.155 13.704 14.349 15.425 22.905 9.29-9.111 23.786-11.608 35.832-5.18 8.922 4.774 14.554 13.436 15.838 22.845 6.66-1.226 13.689-.242 19.92 3.099 7.478 3.989 12.721 10.737 14.944 18.468 7.651-2.44 16.167-1.831 23.649 2.161 7.49 3.997 12.734 10.744 14.953 18.473 7.657-2.441 16.18-1.819 23.672 2.201 3.491 1.846 6.655 4.452 9.203 7.567l39.827 22.509c3.194 1.781 6.905 2.196 10.465 1.171 3.602-1.037 6.567-3.396 8.348-6.645 3.673-6.666 1.191-15.148-5.525-18.924-.412-.232-55.932-31.638-55.932-31.638-3.847-2.166-5.209-7.04-3.043-10.887s7.042-5.209 10.887-3.043l68.511 38.575c3.214 1.762 6.965 2.164 10.544 1.123 3.578-1.041 6.522-3.389 8.291-6.614 3.666-6.651 1.177-15.138-5.54-18.932-16.477-9.205-34.196-19.139-52.143-29.419-3.831-2.195-5.158-7.079-2.963-10.91 2.194-3.832 7.08-5.157 10.909-2.963 17.894 10.25 35.58 20.165 52.026 29.353.001.001.003.002.004.003.002.001.004.002.007.003 3.159 1.771 6.856 2.186 10.413 1.168 3.63-1.038 6.616-3.405 8.409-6.665 2.167-3.932 2.255-8.557.243-12.693zm34.358-23.489-38.86-100.245-14.216 7.607c-15.761 8.204-30.748 2.076-45.242-3.851-19.627-8.026-39.922-16.324-69.181 3.736-6.211 4.247-12.561 9.632-18.883 16.013-13.968 14.123-31.238 27.467-51.396 39.718 20.719 22.31 42.917 13.321 68.381 3.011 20.567-8.328 41.837-16.939 61.429-5.78l75.688 43.145c3.113 1.773 5.851 4.045 8.124 6.722zm62.723.214-57.32-147.864c-.002-.006-.005-.012-.007-.018-.557-1.447-1.663-2.597-3.115-3.239-.783-.346-1.608-.52-2.431-.52-.72 0-1.439.133-2.125.4l-28.468 11.03c-3.046 1.185-4.572 4.642-3.394 7.703l57.31 147.838c1.186 3.049 4.659 4.574 7.742 3.391l28.427-11.042c1.47-.566 2.62-1.672 3.262-3.124.648-1.467.69-3.085.119-4.555zm-71.722-135.814c-5.216 0-9.468 4.252-9.468 9.468 0 5.244 4.252 9.496 9.468 9.496 5.244 0 9.496-4.252 9.496-9.496 0-5.216-4.252-9.468-9.496-9.468zm-312.52-70.753c0-14.349 11.686-26.022 26.05-26.022 7.862 0 14.916 3.51 19.692 9.039l59.132-24.997c-.065-.749-.105-1.504-.105-2.269 0-14.364 11.686-26.05 26.05-26.05 14.349 0 26.022 11.686 26.022 26.05 0 2.338-.315 4.602-.896 6.759l37.596 24.38c4.482-3.656 10.199-5.854 16.421-5.854 6.668 0 12.755 2.523 17.365 6.662l69.853-40.751-7.361-1.294c-4.348-.765-7.253-4.909-6.489-9.257.765-4.348 4.912-7.248 9.257-6.489l28.856 5.074c2.361.415 4.41 1.868 5.584 3.957s1.349 4.595.476 6.828l-10.685 27.325c-1.234 3.155-4.252 5.084-7.447 5.084-.969 0-1.953-.177-2.91-.551-4.111-1.608-6.141-6.245-4.533-10.356l2.322-5.937-68.868 40.176c.391 1.79.602 3.646.602 5.551 0 14.349-11.674 26.022-26.022 26.022s-26.022-11.673-26.022-26.022c0-2.337.315-4.602.895-6.758l-37.596-24.381c-4.482 3.656-10.199 5.854-16.421 5.854-7.868 0-14.926-3.507-19.707-9.033l-59.144 25.002c.064.745.104 1.496.104 2.257 0 14.364-11.673 26.05-26.022 26.05-14.363.001-26.049-11.685-26.049-26.049zm199.928 7.058c0 5.533 4.501 10.035 10.035 10.035s10.035-4.501 10.035-10.035-4.502-10.035-10.035-10.035-10.035 4.502-10.035 10.035zm-79.172-51.307c0 5.533 4.514 10.035 10.063 10.035 5.533 0 10.035-4.501 10.035-10.035 0-5.549-4.501-10.063-10.035-10.063-5.549 0-10.063 4.514-10.063 10.063zm-104.768 44.249c0 5.549 4.514 10.063 10.063 10.063 5.533 0 10.035-4.514 10.035-10.063 0-5.533-4.501-10.035-10.035-10.035-5.549 0-10.063 4.502-10.063 10.035z"
  /></svg>
