<svg
  xmlns="http://www.w3.org/2000/svg"
  height="512"
  viewBox="0 0 512 512"
  width="512"
><g><path
      d="m160.33 364.5-70.63-65.05a24.023 24.023 0 0 0 -17.7-6.88v-68.57a24.032 24.032 0 0 0 -24-24h-16a24.032 24.032 0 0 0 -24 24v176.47a23.9 23.9 0 0 0 6.87 16.81l54.83 55.67a8.041 8.041 0 0 1 2.3 5.61v17.44a8 8 0 0 0 8 8h80a8 8 0 0 0 8-8v-79.98l.07-33.82a24.018 24.018 0 0 0 -7.74-17.7zm-8.33 51.5v72h-64v-9.44a23.829 23.829 0 0 0 -6.9-16.84l-54.81-55.64a7.981 7.981 0 0 1 -2.29-5.61v-176.47a8.011 8.011 0 0 1 8-8h16a8.011 8.011 0 0 1 8 8v75.47c-.04.03-.08.07-.12.1l-11.31 11.31a24.009 24.009 0 0 0 0 33.95l50.91 50.91a8 8 0 1 0 11.32-11.32l-50.91-50.91a8 8 0 0 1 0-11.31l11.31-11.31a8.429 8.429 0 0 1 1.23-1.02 8.011 8.011 0 0 1 10.08 1.02c.08.07.16.15.24.23l70.75 65.15a7.968 7.968 0 0 1 2.57 5.89z"
    /><path
      d="m480.07 200h-16a24.032 24.032 0 0 0 -24 24v68.57a24.148 24.148 0 0 0 -17.7 6.88l-70.62 65.04a24.029 24.029 0 0 0 -7.75 17.71l.07 33.8v80a8 8 0 0 0 8 8h80a8 8 0 0 0 8-8v-17.44a7.936 7.936 0 0 1 2.3-5.62l54.85-55.68a23.879 23.879 0 0 0 6.85-16.79v-176.47a24.032 24.032 0 0 0 -24-24zm8 200.47a7.965 7.965 0 0 1 -2.27 5.59l-54.83 55.65a23.852 23.852 0 0 0 -6.9 16.85v9.44h-64v-72.02l-.07-33.82a8.006 8.006 0 0 1 .67-3.22 8.129 8.129 0 0 1 1.91-2.68l70.74-65.15c.08-.07.16-.15.24-.22a8.011 8.011 0 0 1 10.08-1.02 8.429 8.429 0 0 1 1.23 1.02l11.31 11.31a8 8 0 0 1 0 11.31l-50.91 50.91a8 8 0 0 0 11.32 11.32l50.91-50.91a24.009 24.009 0 0 0 0-33.95l-11.31-11.31c-.04-.03-.08-.07-.12-.1v-75.47a8.011 8.011 0 0 1 8-8h16a8.011 8.011 0 0 1 8 8z"
    /><path
      d="m424 213.12c0-31.171-22.118-74.777-65.739-129.609a894.3 894.3 0 0 0 -64.661-72.342 8 8 0 0 0 -11.2 0c-.434.426-41.349 40.717-76.812 88.085-3.019-3.932-6.22-7.953-9.658-12.075-6.817-8.169-14.23-16.617-22.05-25.108a8 8 0 0 0 -11.775 0c-7.5 8.16-14.67 16.312-21.3 24.23-43.105 51.487-52.805 88.799-52.805 97.816a80.09 80.09 0 0 0 73.792 79.736 136.306 136.306 0 0 0 126.208 85.267c74.99 0 136-61.01 136-136zm-320-29c0-4.759 8.53-39.118 49.072-87.543 4.718-5.638 9.718-11.397 14.928-17.195 5.487 6.1 10.729 12.151 15.644 18.045 39.953 47.9 48.36 81.969 48.36 86.69a64 64 0 0 1 -128 0zm184 149a120.28 120.28 0 0 1 -108.99-69.779 80.108 80.108 0 0 0 68.99-79.224c0-7.37-6.506-33.785-32.528-71.334 27.728-37.702 59.814-71.542 72.528-84.546 10.506 10.738 34.225 35.678 57.737 65.235 40.734 51.199 62.263 92.572 62.263 119.648a120.136 120.136 0 0 1 -120 120z"
    /></g></svg>
